:version 1.10
:name ASF
:units
  mass 1
  length 1
  angle deg
:documentation
  ASF file generated by Kaydara
:root
  axis xyz
  order  tx ty tz rx ry rz
  position 0 0 0
  orientation 0 0 0
:bonedata
  begin
    id 1
    name RightUpLegDummy
    direction -0.718183 -0.695806 0.00816078
    length 4.904
    axis 0 0 0 xyz
  end
  begin
    id 2
    name RightUpLeg
    direction 3.53373e-006 -0.995788 0.0916898
    length 17.4976
    axis -3.49089 -0.000906625 0.000286804 xyz
    dof rx ry rz
  end
  begin
    id 3
    name RightLeg
    direction 0.00371092 -0.995096 -0.0988419
    length 16.5821
    axis 3.68512 0.0193738 -0.131023 xyz
    dof rx ry rz
  end
  begin
    id 4
    name RightFoot
    direction 0.00079151 -0.46099 0.887405
    length 3.77069
    axis 4.81691e-005 -0.120479 -0.188788 xyz
    dof rx ry rz
  end
  begin
    id 5
    name RightToes
    direction 0 0 0
    length 0
    axis 0 0 0 xyz
    dof rx ry rz
  end
  begin
    id 6
    name SpineDummy
    direction 8.3039e-015 1 4.57515e-016
    length 4.6813
    axis 0 0 0 xyz
  end
  begin
    id 7
    name Spine
    direction -3.15643e-008 0.999988 0.00495137
    length 10.1015
    axis -0.001389 0.000121418 2.40972e-006 xyz
    dof rx ry rz
  end
  begin
    id 8
    name Spine1
    direction 0 0 0
    length 0
    axis -0.001389 0.000121451 1.30017e-006 xyz
    dof rx ry rz
  end
  begin
    id 9
    name HEadDummy
    direction -1.99912e-008 0.999999 0.00127422
    length 3.43865
    axis -0.001389 0.000121451 1.30017e-006 xyz
  end
  begin
    id 10
    name HEad
    direction 0 0 0
    length 0
    axis 0 0 0 xyz
    dof rx ry rz
  end
  begin
    id 11
    name LeftShoulder1Dummy
    direction 0.998891 -0.0402509 -0.0244456
    length 3.5433
    axis -0.001389 0.000121451 1.30017e-006 xyz
  end
  begin
    id 12
    name LeftShoulder1
    direction 0.99951 -0.000327763 0.0313091
    length 4.05031
    axis -0.001389 0.000121451 1.30017e-006 xyz
    dof rx ry rz
  end
  begin
    id 13
    name LeftArm
    direction 0.998561 -0.00100056 -0.0536182
    length 10.3537
    axis -23.1894 0.134784 0.967509 xyz
    dof rx ry rz
  end
  begin
    id 14
    name LeftForeArm
    direction 0.998903 0.00866432 0.046012
    length 8.70632
    axis -9.91835 -0.06569 -0.177794 xyz
    dof rx ry rz
  end
  begin
    id 15
    name LeftHand
    direction 0 0 0
    length 0
    axis 0 0 0 xyz
    dof rx ry rz
  end
  begin
    id 16
    name RightShoulderDummy
    direction -0.998891 -0.0402509 -0.0244414
    length 3.5433
    axis -0.001389 0.000121451 1.30017e-006 xyz
  end
  begin
    id 17
    name RightShoulder
    direction -0.99951 -0.000327807 0.0313133
    length 4.05031
    axis 0.215806 0.000203643 -0.0068026 xyz
    dof rx ry rz
  end
  begin
    id 18
    name RightArm
    direction -0.998573 -0.000999564 -0.053403
    length 10.3947
    axis -23.2009 -0.134239 -0.964101 xyz
    dof rx ry rz
  end
  begin
    id 19
    name RightForeArm
    direction -0.998898 0.00868028 0.0461306
    length 8.68355
    axis -9.92322 0.0658061 0.178868 xyz
    dof rx ry rz
  end
  begin
    id 20
    name RightHand
    direction 0 0 0
    length 0
    axis 0 0 0 xyz
    dof rx ry rz
  end
  begin
    id 21
    name LeftUpLegDummy
    direction 0.718183 -0.695806 0.00816078
    length 4.904
    axis 0 0 0 xyz
  end
  begin
    id 22
    name LeftUpLeg
    direction -6.81752e-006 -0.995793 0.0916337
    length 17.4976
    axis -3.48766 0.00143442 -0.000524262 xyz
    dof rx ry rz
  end
  begin
    id 23
    name LeftLeg
    direction -0.00601358 -0.995091 -0.0987824
    length 16.5821
    axis 3.68178 -0.00654042 -0.000285133 xyz
    dof rx ry rz
  end
  begin
    id 24
    name LeftFoot
    direction -0.00417578 -0.460984 0.887399
    length 3.77069
    axis 1.87233e-006 4.66016e-005 -8.6538e-006 xyz
    dof rx ry rz
  end
  begin
    id 25
    name LeftToes
    direction 0 0 0
    length 0
    axis 0 0 0 xyz
    dof rx ry rz
  end
:hierarchy
  begin
    root RightUpLegDummy SpineDummy LeftUpLegDummy
    RightUpLegDummy RightUpLeg
    RightUpLeg RightLeg
    RightLeg RightFoot
    RightFoot RightToes
    SpineDummy Spine
    Spine Spine1
    Spine1 HEadDummy LeftShoulder1Dummy RightShoulderDummy
    HEadDummy HEad
    LeftShoulder1Dummy LeftShoulder1
    LeftShoulder1 LeftArm
    LeftArm LeftForeArm
    LeftForeArm LeftHand
    RightShoulderDummy RightShoulder
    RightShoulder RightArm
    RightArm RightForeArm
    RightForeArm RightHand
    LeftUpLegDummy LeftUpLeg
    LeftUpLeg LeftLeg
    LeftLeg LeftFoot
    LeftFoot LeftToes
  end

:SAMPLES-PER-SECOND 30
:FULLY-SPECIFIED
:DEGREES
146
root  33.6658 40.0104 7.73771 2.77147 71.0877 6.28859
RightUpLeg  -8.29361 -9.57192 -11.2504
RightLeg  7.23147 7.52097 1.43778
RightFoot  4.95331 -0.948632 6.85595
RightToes  0.000481921 0.542163 -0.142578
Spine  15.1349 -1.83783 0.44675
Spine1  8.93196 -2.52456 1.98594
HEad  16.1833 16.8112 -10.027
LeftShoulder1  6.75741 -14.0878 -32.3717
LeftArm  -18.0069 -16.7653 -30.0725
LeftForeArm  -157.294 -53.5915 -168.849
LeftHand  -0.25398 0.0180481 5.50724
RightShoulder  4.88523 11.3045 26.9422
RightArm  6.89752 29.2906 65.9812
RightForeArm  168.339 68.4863 155.112
RightHand  -0.398814 0.43104 -8.00695
LeftUpLeg  -1.4389 20.1874 5.22889
LeftLeg  14.5113 20.0443 0.802622
LeftFoot  -4.63306 0.218061 -3.24404
LeftToes  1.06244e-005 4.65869e-005 -8.65518e-006
147
root  33.8245 40.0306 7.77612 3.47975 72.3532 7.29193
RightUpLeg  -7.56327 -9.77244 -11.7169
RightLeg  7.58906 6.66693 1.24859
RightFoot  4.45076 -0.892694 6.64748
RightToes  0.000481921 0.542163 -0.142578
Spine  14.1088 -1.61483 2.67567
Spine1  8.82113 -1.16785 -1.18285
HEad  17.3051 13.9625 -7.93783
LeftShoulder1  7.40231 -14.4303 -35.2103
LeftArm  -16.5711 -14.5842 -33.7878
LeftForeArm  -161.469 -52.6175 -168.885
LeftHand  -0.25398 0.0180481 5.50724
RightShoulder  4.64806 11.0357 25.882
RightArm  4.79935 30.9476 65.1637
RightForeArm  164.413 68.0429 155.16
RightHand  -0.524856 0.874363 -9.8294
LeftUpLeg  -0.761893 19.6235 5.15198
LeftLeg  13.8484 19.3782 0.296886
LeftFoot  -4.54327 0.231062 -3.43206
LeftToes  1.06244e-005 4.65869e-005 -8.65518e-006
148
root  33.8379 39.9411 7.84566 2.81693 74.8051 7.22191
RightUpLeg  -7.17264 -9.81446 -11.7563
RightLeg  9.6813 4.64648 0.971745
RightFoot  3.10045 -0.788631 6.38494
RightToes  0.000481921 0.542163 -0.142578
Spine  14.1192 -1.54851 4.09038
Spine1  8.62434 -0.568182 -2.50081
HEad  17.686 11.5653 -7.19076
LeftShoulder1  7.69936 -14.9583 -35.6235
LeftArm  -16.4268 -13.0939 -38.7059
LeftForeArm  -166.885 -53.2815 -168.238
LeftHand  -0.25398 0.0180481 5.50724
RightShoulder  4.38763 10.6567 24.8563
RightArm  3.29586 32.8495 64.5358
RightForeArm  162.76 67.8034 155.24
RightHand  -0.657365 1.76722 -10.859
LeftUpLeg  -1.47888 23.522 5.18197
LeftLeg  15.6044 13.0715 1.45429
LeftFoot  -5.15168 0.232385 -3.72913
LeftToes  1.06244e-005 4.65869e-005 -8.65518e-006
149
root  33.7555 39.727 7.9629 1.41626 77.6864 6.56046
RightUpLeg  -7.53793 -9.7657 -11.5492
RightLeg  13.5975 2.21673 0.487784
RightFoot  0.963476 -0.671765 6.28888
RightToes  0.000481921 0.542163 -0.142578
Spine  14.887 -1.52915 4.41187
Spine1  8.43848 -0.493019 -2.36601
HEad  17.1904 9.93587 -7.46364
LeftShoulder1  7.87858 -15.2754 -35.8641
LeftArm  -15.4268 -12.3663 -42.2103
LeftForeArm  -169.098 -53.5064 -167.984
LeftHand  -0.25398 0.0180481 5.50724
RightShoulder  4.16613 10.2841 24.052
RightArm  2.68132 33.9688 64.4118
RightForeArm  164.704 67.1903 156.164
RightHand  -0.736141 2.43896 -11.1365
LeftUpLeg  -3.27042 26.1803 5.09527
LeftLeg  19.0438 7.45458 3.11231
LeftFoot  -6.35094 0.211361 -3.97527
LeftToes  1.06244e-005 4.65869e-005 -8.65518e-006
150
root  33.6307 39.3915 8.12358 0.394318 80.4538 6.54634
RightUpLeg  -8.40471 -9.75508 -11.5185
RightLeg  18.8019 0.0601118 -0.192794
RightFoot  -1.52315 -0.547493 6.24361
RightToes  0.000481921 0.542163 -0.142578
Spine  16.2009 -1.45314 4.15069
Spine1  8.38463 -0.407339 -2.20857
HEad  16.1447 8.62656 -7.61544
LeftShoulder1  8.01683 -15.4353 -36.2311
LeftArm  -13.1896 -13.0314 -43.7124
LeftForeArm  -167.726 -53.4936 -168.087
LeftHand  -0.25398 0.0180481 5.50724
RightShoulder  4.0896 10.3452 23.332
RightArm  2.32545 33.2282 64.421
RightForeArm  165.833 65.578 157.948
RightHand  -0.827146 2.60798 -12.2279
LeftUpLeg  -5.01828 22.893 5.27594
LeftLeg  23.3666 7.63891 3.96958
LeftFoot  -7.91244 0.167512 -4.00096
LeftToes  1.06244e-005 4.65869e-005 -8.65518e-006
151
root  33.5197 39.0192 8.30772 1.30229 83.0359 8.77975
RightUpLeg  -8.89007 -9.93496 -11.8705
RightLeg  23.779 -1.5842 -0.982965
RightFoot  -3.73801 -0.426148 6.01977
RightToes  0.000481921 0.542163 -0.142578
Spine  17.5076 -1.38946 3.83025
Spine1  8.90384 -0.144701 -2.81037
HEad  14.97 7.22263 -7.08822
LeftShoulder1  7.9248 -15.4694 -35.6806
LeftArm  -11.1211 -14.9195 -44.6921
LeftForeArm  -166.693 -53.8143 -168.019
LeftHand  -0.25398 0.0180481 5.50724
RightShoulder  4.26388 10.8804 23.4392
RightArm  2.04669 30.5795 64.0311
RightForeArm  165.209 63.1793 160.019
RightHand  -0.919908 2.45404 -13.8162
LeftUpLeg  -6.04227 20.2234 5.44699
LeftLeg  27.1295 7.34456 4.40742
LeftFoot  -9.39823 0.120972 -3.80389
LeftToes  1.06244e-005 4.65869e-005 -8.65518e-006
152
root  33.4735 38.7545 8.49017 6.78026 85.2824 15.397
RightUpLeg  -8.71469 -10.2909 -12.4128
RightLeg  27.0806 -2.78831 -1.77435
RightFoot  -5.29222 -0.339279 5.73796
RightToes  0.000481921 0.542163 -0.142578
Spine  18.0845 -1.30889 3.66764
Spine1  10.0355 0.272194 -3.86065
HEad  14.0343 5.69864 -6.40927
LeftShoulder1  7.54995 -15.0894 -34.5408
LeftArm  -9.37843 -17.2049 -45.8886
LeftForeArm  -167.216 -54.4812 -167.683
LeftHand  -0.25398 0.0180481 5.50724
RightShoulder  4.74472 11.4617 25.5994
RightArm  2.22473 26.3491 63.0468
RightForeArm  166.842 60.6803 162.064
RightHand  -0.915903 2.44681 -13.7652
LeftUpLeg  -6.32357 18.6635 5.47784
LeftLeg  29.2635 6.46806 4.25662
LeftFoot  -10.2865 0.0943932 -3.56962
LeftToes  1.06244e-005 4.65869e-005 -8.65518e-006
153
root  33.5023 38.6939 8.63731 20.4845 86.9152 29.4359
RightUpLeg  -8.27905 -10.7033 -12.8615
RightLeg  28.1494 -3.7537 -2.40503
RightFoot  -5.99953 -0.305044 5.65946
RightToes  0.000481921 0.542163 -0.142578
Spine  17.5539 -1.13356 3.77284
Spine1  11.4077 0.828459 -4.89332
HEad  13.5221 4.33982 -6.3174
LeftShoulder1  7.1163 -14.332 -33.8506
LeftArm  -7.24657 -19.0953 -47.0159
LeftForeArm  -167.539 -55.2651 -167.298
LeftHand  -0.25398 0.0180481 5.50724
RightShoulder  5.36956 11.7323 29.2611
RightArm  2.75432 21.1244 61.8496
RightForeArm  171.396 58.6818 163.776
RightHand  -0.821149 2.89639 -11.7578
LeftUpLeg  -6.32841 17.8725 5.25575
LeftLeg  29.4276 5.59321 3.75607
LeftFoot  -10.3141 0.0929534 -3.47126
LeftToes  1.06244e-005 4.65869e-005 -8.65518e-006
154
root  33.5643 38.8387 8.71597 42.053 87.7681 50.5246
RightUpLeg  -7.7734 -11.2646 -13.1113
RightLeg  27.0958 -4.41724 -2.68037
RightFoot  -5.70907 -0.319061 5.69074
RightToes  0.000481921 0.542163 -0.142578
Spine  16.3301 -0.899662 3.95988
Spine1  12.4294 1.3431 -5.6203
HEad  13.5688 3.5719 -6.85514
LeftShoulder1  6.83428 -13.7208 -33.6315
LeftArm  -5.38196 -19.9592 -47.6578
LeftForeArm  -167.242 -55.8012 -167.065
LeftHand  -0.25398 0.0180481 5.50724
RightShoulder  5.787 11.8014 31.8636
RightArm  3.03421 16.5022 60.995
RightForeArm  174.727 57.7872 164.588
RightHand  -0.709959 3.35776 -9.69422
LeftUpLeg  -6.19308 17.2773 4.75473
LeftLeg  27.7743 5.21843 3.31892
LeftFoot  -9.53478 0.112336 -3.49568
LeftToes  1.06244e-005 4.65869e-005 -8.65518e-006
155
root  33.6163 39.1218 8.71304 58.697 87.9402 66.2905
RightUpLeg  -7.08604 -12.0065 -13.2225
RightLeg  24.3478 -4.56462 -2.48154
RightFoot  -4.51849 -0.364629 5.59872
RightToes  0.000481921 0.542163 -0.142578
Spine  15.0846 -0.679229 3.88388
Spine1  12.6288 1.59802 -5.87097
HEad  14.256 3.48027 -7.33974
LeftShoulder1  6.69276 -13.5139 -33.2856
LeftArm  -4.83133 -19.7527 -47.7537
LeftForeArm  -167.465 -55.8309 -167.033
LeftHand  -0.25398 0.0180481 5.50724
RightShoulder  5.80166 11.8649 31.799
RightArm  2.97541 14.5944 60.3882
RightForeArm  174.589 58.3907 164.217
RightHand  -0.607145 2.99463 -8.67645
LeftUpLeg  -5.69652 16.8878 4.14319
LeftLeg  24.7162 5.33611 3.0176
LeftFoot  -8.2189 0.144169 -3.48513
LeftToes  1.06244e-005 4.65869e-005 -8.65518e-006
156
root  33.6513 39.4376 8.64273 58.2203 87.7028 64.7808
RightUpLeg  -6.38861 -12.8464 -13.3144
RightLeg  20.7335 -4.02345 -1.89864
RightFoot  -2.92885 -0.42426 5.48976
RightToes  0.000481921 0.542163 -0.142578
Spine  14.1526 -0.47055 3.56455
Spine1  11.8325 1.67604 -5.87846
HEad  15.3755 3.62509 -7.10641
LeftShoulder1  6.64815 -13.586 -32.8601
LeftArm  -5.19258 -19.2647 -47.4505
LeftForeArm  -168.26 -55.5809 -167.095
LeftHand  -0.25398 0.0180481 5.50724
RightShoulder  5.56716 11.8656 30.254
RightArm  2.83386 15.9395 59.3188
RightForeArm  173.058 59.9272 163.135
RightHand  -0.546233 2.44475 -8.33467
LeftUpLeg  -4.93219 17.3166 3.57038
LeftLeg  21.0372 5.41964 2.63933
LeftFoot  -6.78408 0.176934 -3.42224
LeftToes  1.06244e-005 4.65869e-005 -8.65518e-006
157
root  33.671 39.6831 8.52676 47.3415 87.0616 52.7498
RightUpLeg  -6.18519 -13.5434 -13.4758
RightLeg  17.4161 -2.99717 -1.17509
RightFoot  -1.48239 -0.491186 5.5707
RightToes  0.000481921 0.542163 -0.142578
Spine  13.4986 -0.271899 3.39344
Spine1  10.4315 1.82003 -6.15387
HEad  16.197 3.73175 -6.27001
LeftShoulder1  6.68608 -13.7573 -32.6935
LeftArm  -5.65263 -19.5135 -46.8649
LeftForeArm  -168.673 -55.4628 -167.121
LeftHand  -0.25398 0.0180481 5.50724
RightShoulder  5.32367 11.7422 28.9263
RightArm  2.41195 19.1698 57.9183
RightForeArm  171.742 61.4998 161.948
RightHand  -0.561291 2.59787 -8.40092
LeftUpLeg  -4.37906 18.017 3.10147
LeftLeg  17.8359 5.84822 2.02212
LeftFoot  -5.6806 0.205689 -3.46811
LeftToes  1.06244e-005 4.65869e-005 -8.65518e-006
158
root  33.6702 39.8264 8.37543 36.7523 85.9765 41.0769
RightUpLeg  -6.57645 -13.7067 -13.7198
RightLeg  15.0575 -2.03956 -0.490352
RightFoot  -0.28983 -0.554198 5.70397
RightToes  0.000481921 0.542163 -0.142578
Spine  12.9722 -0.135249 3.56545
Spine1  9.31118 2.0809 -6.85988
HEad  16.014 4.07704 -5.42675
LeftShoulder1  6.71752 -13.8926 -32.5729
LeftArm  -6.26599 -20.7797 -46.2519
LeftForeArm  -168.54 -55.5403 -167.094
LeftHand  -0.25398 0.0180481 5.50724
RightShoulder  5.1168 11.5681 27.9316
RightArm  1.65687 22.6049 57.0914
RightForeArm  169.105 62.7458 160.761
RightHand  -0.654933 2.92431 -9.40665
LeftUpLeg  -4.14619 16.8715 2.84039
LeftLeg  15.7121 8.43807 1.15703
LeftFoot  -5.061 0.228206 -3.60617
LeftToes  1.06244e-005 4.65869e-005 -8.65518e-006
159
root  33.6656 39.9088 8.19047 28.6991 84.6787 32.2939
RightUpLeg  -6.96911 -13.5154 -13.9311
RightLeg  13.2591 -1.18753 0.0788742
RightFoot  0.861452 -0.605376 5.7143
RightToes  0.000481921 0.542163 -0.142578
Spine  12.4349 -0.122337 3.81479
Spine1  9.09515 2.22509 -7.38375
HEad  15.058 4.95789 -4.91176
LeftShoulder1  6.67542 -13.8894 -32.3379
LeftArm  -7.14509 -22.3407 -45.962
LeftForeArm  -168.24 -55.5897 -167.092
LeftHand  -0.25398 0.0180481 5.50724
RightShoulder  4.92211 11.3921 26.9979
RightArm  1.25677 25.2677 57.015
RightForeArm  164.572 63.6191 159.594
RightHand  -0.783734 2.88372 -11.2398
LeftUpLeg  -3.94392 15.4275 2.65001
LeftLeg  14.336 11.45 0.516523
LeftFoot  -4.72782 0.230707 -3.50264
LeftToes  1.06244e-005 4.65869e-005 -8.65518e-006
